# xmcd CD database file
#
# Track frame offsets:
#	150
#	14014
#	55174
#	86603
#	119522
#	189573
#	226315
#	264383
#
# Disc length: 3930 seconds
#
# Revision: 0
# Processed by: cddbd v1.5.2PL0 Copyright (c) Steve Scherf et al.
# Submitted via: CDex 1.70beta3
#
DISCID=670f5808
DTITLE=In the Country - Sounds and Sights
DYEAR=2011
DGENRE=Jazz
TTITLE0=Afraid
TTITLE1=Whiteout
TTITLE2=Slow Down
TTITLE3=How to Get Aquainted
TTITLE4=Kung Home
TTITLE5=Brothers in Arms
TTITLE6=Torch Fishing
TTITLE7=Tree Canopy Walkway
EXTD=YEAR: 2011
EXTT0=
EXTT1=
EXTT2=
EXTT3=
EXTT4=
EXTT5=
EXTT6=
EXTT7=
PLAYORDER=
